<svg xmlns="http://www.w3.org/2000/svg" version="1.1" xmlns:xlink="http://www.w3.org/1999/xlink" xmlns:svgjs="http://svgjs.dev/svgjs" width="1000" height="801" viewBox="0 0 1000 801"><g transform="matrix(1,0,0,1,0.7729650753418582,0.3242964786223297)"><svg viewBox="0 0 308 247" data-background-color="#010536" preserveAspectRatio="xMidYMid meet" height="801" width="1000" xmlns="http://www.w3.org/2000/svg" xmlns:xlink="http://www.w3.org/1999/xlink"><g id="tight-bounds" transform="matrix(1,0,0,1,-0.2380731493242081,-0.10000153585482963)"><svg viewBox="0 0 308.47614639252953 247.2" height="247.2" width="308.47614639252953"><g><svg viewBox="0 0 395.52 316.9533370518265" height="247.2" width="308.47614639252953"><g><svg viewBox="0 0 395.52 316.9533370518265" height="316.9533370518265" width="395.52"><g id="textblocktransform"><svg viewBox="0 0 395.52 316.9533370518265" height="316.9533370518265" width="395.52" id="textblock"><g><svg viewBox="0 0 395.52 182.0808184143222" height="182.0808184143222" width="395.52"><g transform="matrix(1,0,0,1,0,0)"><svg width="395.52" viewBox="0.6000000238418579 -35.5 78.34000396728516 36" height="182.0808184143222" data-palette-color="#fbfbf8"><g class="undefined-text-0" data-fill-palette-color="primary" id="text-0"><path d="M0.6 0L6.3-35 13.75-35 19.45 0 13.95 0 12.95-6.95 12.95-6.85 6.7-6.85 5.7 0 0.6 0ZM7.35-11.6L12.3-11.6 9.85-28.9 9.75-28.9 7.35-11.6ZM22.1 0L22.1-35 29-35 34.35-14.05 34.45-14.05 34.45-35 39.35-35 39.35 0 33.7 0 27.1-25.55 27-25.55 27 0 22.1 0ZM42 0L47.7-35 55.15-35 60.85 0 55.35 0 54.35-6.95 54.35-6.85 48.1-6.85 47.1 0 42 0ZM48.75-11.6L53.7-11.6 51.25-28.9 51.15-28.9 48.75-11.6ZM70.64 0.5Q66.64 0.5 64.59-1.78 62.54-4.05 62.54-8.3L62.54-8.3 62.54-10.3 67.74-10.3 67.74-7.9Q67.74-4.5 70.59-4.5L70.59-4.5Q71.99-4.5 72.72-5.33 73.44-6.15 73.44-8L73.44-8Q73.44-10.2 72.44-11.88 71.44-13.55 68.74-15.9L68.74-15.9Q65.34-18.9 63.99-21.33 62.64-23.75 62.64-26.8L62.64-26.8Q62.64-30.95 64.74-33.23 66.84-35.5 70.84-35.5L70.84-35.5Q74.79-35.5 76.82-33.23 78.84-30.95 78.84-26.7L78.84-26.7 78.84-25.25 73.64-25.25 73.64-27.05Q73.64-28.85 72.94-29.68 72.24-30.5 70.89-30.5L70.89-30.5Q68.14-30.5 68.14-27.15L68.14-27.15Q68.14-25.25 69.17-23.6 70.19-21.95 72.89-19.6L72.89-19.6Q76.34-16.6 77.64-14.15 78.94-11.7 78.94-8.4L78.94-8.4Q78.94-4.1 76.82-1.8 74.69 0.5 70.64 0.5L70.64 0.5Z" fill="#fbfbf8" data-fill-palette-color="primary"></path></g></svg></g></svg></g><g transform="matrix(1,0,0,1,75.54432,225.06572970230172)"><svg viewBox="0 0 244.43135999999998 91.88760734952479" height="91.88760734952479" width="244.43135999999998"><g transform="matrix(1,0,0,1,0,0)"><svg width="244.43135999999998" viewBox="3.5 -35 94.69999694824219 35.599998474121094" height="91.88760734952479" data-palette-color="#ecec2e"><path d="M15.3 0L3.5 0 3.5-35 15.3-35Q20.9-35 25-32.75 29.1-30.5 31.38-26.55 33.65-22.6 33.65-17.5L33.65-17.5Q33.65-12.4 31.38-8.45 29.1-4.5 25-2.25 20.9 0 15.3 0L15.3 0ZM10.65-28.7L10.65-6.3 15.3-6.3Q18.55-6.3 21.08-7.65 23.6-9 25.05-11.53 26.5-14.05 26.5-17.5L26.5-17.5Q26.5-21 25.05-23.5 23.6-26 21.08-27.35 18.55-28.7 15.3-28.7L15.3-28.7 10.65-28.7ZM61.75 0L47.6 0Q44.7 0 42.32-1.4 39.95-2.8 38.55-5.18 37.15-7.55 37.15-10.45L37.15-10.45Q37.15-12.55 38.05-14.4 38.95-16.25 40.5-17.65L40.5-17.65Q38.95-19.05 38.05-20.9 37.15-22.75 37.15-24.8L37.15-24.8Q37.15-27.65 38.52-29.95 39.9-32.25 42.22-33.63 44.55-35 47.35-35L47.35-35 61.75-35 61.75-28.7 48.15-28.7Q47.1-28.7 46.22-28.18 45.35-27.65 44.82-26.78 44.3-25.9 44.3-24.8L44.3-24.8Q44.3-23.75 44.82-22.88 45.35-22 46.22-21.48 47.1-20.95 48.15-20.95L48.15-20.95 60.05-20.95 60.05-14.65 48.45-14.65Q47.3-14.65 46.35-14.08 45.4-13.5 44.85-12.55 44.3-11.6 44.3-10.45L44.3-10.45Q44.3-9.3 44.85-8.35 45.4-7.4 46.35-6.85 47.3-6.3 48.45-6.3L48.45-6.3 61.75-6.3 61.75 0ZM81 0.6L81 0.6Q78.7 0.6 76.87-0.48 75.05-1.55 74.2-3.85L74.2-3.85 63.75-35 71.7-35 80.15-6.8Q80.25-6.45 80.47-6.3 80.7-6.15 81-6.15L81-6.15Q81.3-6.15 81.52-6.3 81.75-6.45 81.84-6.8L81.84-6.8 90.59-35 98.2-35 87.8-3.9Q87-1.65 85.15-0.53 83.3 0.6 81 0.6Z" opacity="1" transform="matrix(1,0,0,1,0,0)" fill="#ecec2e" class="undefined-text-1" data-fill-palette-color="secondary" id="text-1"></path></svg></g></svg></g></svg></g></svg></g></svg></g><defs></defs></svg><rect width="308.47614639252953" height="247.2" fill="none" stroke="none" visibility="hidden"></rect></g></svg></g></svg>